<svg xmlns="http://www.w3.org/2000/svg" width="142.1" height="33.978" viewBox="0 0 142.1 33.978"><path d="M12.936-18.018c2.394,0,4.41,1.47,4.41,4.032H8.358A4.442,4.442,0,0,1,12.936-18.018ZM24.15-7.77H16.506A3.819,3.819,0,0,1,12.768-5.5c-2.31,0-4.2-1.428-4.452-4.494H24.57a18.149,18.149,0,0,0,.126-2.1c0-7.14-4.83-11.676-11.676-11.676-6.972,0-11.844,4.62-11.844,12.054S6.132.336,13.02.336C18.858.336,23.016-3.192,24.15-7.77Zm21-15.666H27.258v5.922h9.66l-9.744,11.8V0H45.36V-5.922H35.2l9.954-11.8ZM49.308,0H56.49V-23.436H49.308ZM52.92-25.872a3.954,3.954,0,0,0,4.242-3.864,3.961,3.961,0,0,0-4.242-3.906,3.974,3.974,0,0,0-4.284,3.906A3.967,3.967,0,0,0,52.92-25.872Zm28.728-3.486V-4.7L65.394-29.358h-2.94V0h2.94V-24.7L81.648,0h2.94V-29.358ZM91.266,0h2.94V-13.524h10.92V-15.96H94.206V-26.922h12.936v-2.436H91.266Zm18.606-26.922h8.19V0H121V-26.922h8.148v-2.436H109.872Zm33.4,22.862c-.084-5.4-9.128-3.192-9.128-7.336,0-1.344,1.288-2.436,3.332-2.436,2.324,0,3.584,1.288,3.7,3h1.96c-.168-2.94-2.324-4.676-5.6-4.676-3.22,0-5.376,1.876-5.376,4.144,0,5.74,9.184,3.528,9.184,7.308,0,1.456-1.232,2.632-3.416,2.632-2.492,0-3.948-1.2-4.116-2.884H131.8c.252,2.8,2.688,4.536,6.16,4.536C141.12.224,143.276-1.6,143.276-4.06Z" transform="translate(-1.176 33.642)" fill="#fff"/></svg>