<svg xmlns="http://www.w3.org/2000/svg" width="51.637" height="37.018" viewBox="0 0 51.637 37.018"><g transform="translate(-67.398 -76.683)"><path d="M72.981,80.141H86.892a16.534,16.534,0,0,0-10.139,14.54h-2.2v5.5h5.5v-5.5H77.932A15.4,15.4,0,0,1,90.35,80.3v1.965h5.5V80.3a15.253,15.253,0,0,1,12.5,14.383h-2.2v5.5h5.5v-5.5h-2.122a16.351,16.351,0,0,0-10.139-14.54h14.068a2.826,2.826,0,1,0,2.751-3.458,2.857,2.857,0,0,0-2.751,2.2H95.85V76.761h-5.5v2.122H72.979a2.875,2.875,0,0,0-2.751-2.122,2.83,2.83,0,0,0,0,5.659,3.02,3.02,0,0,0,2.751-2.279Zm5.894,18.785H75.731V95.782h3.144Zm31.517,0h-3.144V95.782h3.144Zm5.738-20.985a1.651,1.651,0,1,1-1.651,1.651A1.66,1.66,0,0,1,116.13,77.941Zm-24.6,0h3.144v3.144H91.53ZM68.658,79.513a1.651,1.651,0,1,1,1.651,1.651A1.66,1.66,0,0,1,68.658,79.513Z" fill="#64408e"/><path d="M121.533,359.335a.472.472,0,0,0-.314-.079H85.773a5.434,5.434,0,0,0-5.423,5.423v.471a5.417,5.417,0,0,0,5.423,5.345h35.446c.157,0,.236-.079.314-.079l8.41-5.5Zm-30.5,4.559H120.59v1.965H91.038Zm30.731-2.987,2.751,1.808v4.323l-2.672,1.808Zm-1.179,1.807H91.037v-2.279H120.59Zm-38.983,2.436v-.471a4.226,4.226,0,0,1,4.244-4.244h4.087v8.881H85.772A4.193,4.193,0,0,1,81.606,365.151Zm9.431,4.244v-2.279H120.59V369.4Zm34.739-3.144V363.5l2.122,1.415Z" transform="translate(-11.77 -256.795)" fill="#64408e"/></g></svg>