<svg xmlns="http://www.w3.org/2000/svg" width="49.6" height="37.398" viewBox="0 0 49.6 37.398"><g transform="translate(-77.797 -74.764)"><path d="M215.938,263.26a.77.77,0,0,1-.47-.159l-6.531-4.989a.774.774,0,0,1,0-1.231l6.531-4.989a.775.775,0,0,1,.941,1.232l-5.725,4.372,5.725,4.372a.775.775,0,0,1-.471,1.391Z" transform="translate(-118.915 -160.846)" fill="#64408e"/><path d="M403.443,263.258a.775.775,0,0,1-.471-1.391l5.725-4.372-5.725-4.373a.775.775,0,0,1,.941-1.232l6.531,4.989a.775.775,0,0,1,0,1.231l-6.531,4.988a.77.77,0,0,1-.47.159Z" transform="translate(-295.272 -160.844)" fill="#64408e"/><path d="M318.841,239.486a.776.776,0,0,1-.747-.984l4.269-15.273a.775.775,0,1,1,1.493.417l-4.269,15.273a.774.774,0,0,1-.746.567Z" transform="translate(-218.378 -134.424)" fill="#64408e"/><path d="M124.684,112.162H80.51a2.715,2.715,0,0,1-2.713-2.713V77.477a2.715,2.715,0,0,1,2.713-2.713h44.175a2.716,2.716,0,0,1,2.713,2.713v31.972A2.715,2.715,0,0,1,124.684,112.162ZM80.51,76.314a1.164,1.164,0,0,0-1.162,1.162v31.972a1.164,1.164,0,0,0,1.162,1.162h44.175a1.164,1.164,0,0,0,1.162-1.162V77.477a1.164,1.164,0,0,0-1.162-1.162Z" transform="translate(0 0)" fill="#64408e"/><path d="M126.627,146.275H78.577a.775.775,0,1,1,0-1.55h48.049a.775.775,0,1,1,0,1.55Z" transform="translate(-0.005 -63.586)" fill="#64408e"/><path d="M365.755,111.295H346.477a.775.775,0,1,1,0-1.55h19.278a.775.775,0,0,1,0,1.55Z" transform="translate(-243.497 -31.793)" fill="#64408e"/><path d="M136.1,108.742a.953.953,0,1,1-.953-.953.953.953,0,0,1,.953.953" transform="translate(-51.257 -30.016)" fill="#64408e"/><path d="M179.874,108.742a.953.953,0,1,1-.953-.953.953.953,0,0,1,.953.953" transform="translate(-91.045 -30.016)" fill="#64408e"/><path d="M223.648,108.742a.953.953,0,1,1-.953-.953.953.953,0,0,1,.953.953" transform="translate(-130.83 -30.016)" fill="#64408e"/></g></svg>