<svg xmlns="http://www.w3.org/2000/svg" width="65.333" height="32.43" viewBox="0 0 65.333 32.43"><g transform="translate(-98.962 -161.92)"><path d="M289.135,194.35a16.215,16.215,0,1,1,16.215-16.215A16.233,16.233,0,0,1,289.135,194.35Zm0-30.633a14.419,14.419,0,1,0,14.419,14.419A14.436,14.436,0,0,0,289.135,163.717Z" transform="translate(-151.322)" fill="#64408e"/><path d="M333.391,228.206a.9.9,0,0,1-.359-.075l-9.513-4.155a.9.9,0,1,1,.719-1.646l8.256,3.605v-8.027a.9.9,0,1,1,1.8,0v9.4a.9.9,0,0,1-.9.9Z" transform="translate(-194.868 -47.921)" fill="#64408e"/><path d="M114.943,291.048H99.859a.9.9,0,1,1,0-1.8h15.084a.9.9,0,1,1,0,1.8Z" transform="translate(0 -110.764)" fill="#64408e"/><path d="M149.593,237.749H134.509a.9.9,0,1,1,0-1.8h15.084a.9.9,0,1,1,0,1.8Z" transform="translate(-30.141 -64.4)" fill="#64408e"/><path d="M149.593,344.339H134.509a.9.9,0,1,1,0-1.8h15.084a.9.9,0,1,1,0,1.8Z" transform="translate(-30.141 -157.119)" fill="#64408e"/><path d="M521.451,264.876l-3.385-2.777a.9.9,0,1,0-1.138,1.39l1.352,1.109h-7.5a.857.857,0,1,0,0,1.715h7.62l-1.444,1.086a.9.9,0,0,0,1.08,1.436l3.385-2.546a.9.9,0,0,0,.029-1.412Z" transform="translate(-357.486 -86.966)" fill="#64408e"/></g></svg>