<svg xmlns="http://www.w3.org/2000/svg" width="27.5" height="27.5" viewBox="0 0 27.5 27.5"><g transform="translate(0.75 0.75)"><path d="M6-.75H20A6.758,6.758,0,0,1,26.75,6V20A6.758,6.758,0,0,1,20,26.75H6A6.758,6.758,0,0,1-.75,20V6A6.758,6.758,0,0,1,6-.75Zm14,26A5.256,5.256,0,0,0,25.25,20V6A5.256,5.256,0,0,0,20,.75H6A5.256,5.256,0,0,0,.75,6V20A5.256,5.256,0,0,0,6,25.25Z" fill="#b4aebb"/><path d="M0,9.25A.75.75,0,0,1-.75,8.5V0A.75.75,0,0,1,0-.75.75.75,0,0,1,.75,0V8.5A.75.75,0,0,1,0,9.25Z" transform="translate(6.809 11.428)" fill="#b4aebb"/><path d="M18.88,20.14a.75.75,0,0,1-.75-.75V15.14a3.5,3.5,0,0,0-7,0v4.25a.75.75,0,1,1-1.5,0V15.14a5,5,0,0,1,10,0v4.25A.75.75,0,0,1,18.88,20.14Z" transform="translate(0.325 0.537)" fill="#b4aebb"/><path d="M0,.906A.75.75,0,0,1-.75.156V0A.75.75,0,0,1,0-.75.75.75,0,0,1,.75,0V.156A.75.75,0,0,1,0,.906Z" transform="translate(6.809 7.022)" fill="#b4aebb"/></g></svg>