<svg xmlns="http://www.w3.org/2000/svg" width="27.5" height="27.67" viewBox="0 0 27.5 27.67"><g transform="translate(-2.583 -2.583)"><path d="M6-.75H20A6.758,6.758,0,0,1,26.75,6V20A6.758,6.758,0,0,1,20,26.75H6A6.758,6.758,0,0,1-.75,20V6A6.758,6.758,0,0,1,6-.75Zm14,26A5.256,5.256,0,0,0,25.25,20V6A5.256,5.256,0,0,0,20,.75H6A5.256,5.256,0,0,0,.75,6V20A5.256,5.256,0,0,0,6,25.25Z" transform="translate(3.333 3.334)" fill="#b4aebb"/><path d="M12,28.381a.75.75,0,0,1-.75-.75V12.816A6.676,6.676,0,0,1,17.926,6.14a.75.75,0,0,1,0,1.5,5.176,5.176,0,0,0-5.176,5.176V27.631A.75.75,0,0,1,12,28.381Z" transform="translate(4.333 1.873)" fill="#b4aebb"/><path d="M8.889.75H0A.75.75,0,0,1-.75,0,.75.75,0,0,1,0-.75H8.889a.75.75,0,0,1,.75.75A.75.75,0,0,1,8.889.75Z" transform="translate(11.933 17.815)" fill="#b4aebb"/></g></svg>