<svg xmlns="http://www.w3.org/2000/svg" width="27.5" height="27.5" viewBox="0 0 27.5 27.5"><g transform="translate(0.417 0.417)"><path d="M6-.75H20A6.758,6.758,0,0,1,26.75,6V20A6.758,6.758,0,0,1,20,26.75H6A6.758,6.758,0,0,1-.75,20V6A6.758,6.758,0,0,1,6-.75Zm14,26A5.256,5.256,0,0,0,25.25,20V6A5.256,5.256,0,0,0,20,.75H6A5.256,5.256,0,0,0,.75,6V20A5.256,5.256,0,0,0,6,25.25Z" transform="translate(0.333 0.334)" fill="#b4aebb"/><path d="M4-.75A4.75,4.75,0,1,1-.75,4,4.755,4.755,0,0,1,4-.75Zm0,8A3.25,3.25,0,1,0,.75,4,3.254,3.254,0,0,0,4,7.25Z" transform="translate(9.333 9.334)" fill="#b4aebb"/><circle cx="0.952" cy="0.952" r="0.952" transform="translate(20.119 4.473)" fill="#b4aebb"/></g></svg>